<svg xmlns="http://www.w3.org/2000/svg" width="182" height="37.001"><defs><clipPath id="a"><path data-name="Rectangle 4" transform="translate(0 -.001)" fill="09253c" d="M0 0h182v37.001H0z"/></clipPath></defs><g data-name="Slim vectorobject"><g data-name="Group 8"><g data-name="Group 7" clip-path="url(#a)" fill="#09253c" transform="translate(0 .001)"><path data-name="Path 8" d="M100.441 15.01c0 3.034 1.588 5.043 3.453 5.043s3.81-2.009 3.81-5.043c0-3.073-1.945-5.437-3.81-5.437s-3.453 2.363-3.453 5.437m2.659 20.565c4.446 0 7.065-1.378 6.588-4.137-.317-1.891-2.3-2.4-5.238-2.64a28.184 28.184 0 01-3.889-.275c-1.151.237-1.905 1.143-1.905 3.191 0 1.851 1.468 3.86 4.444 3.86m-4.286-7.643a4.5 4.5 0 01-3.056-4.1 3.885 3.885 0 012.382-3.822 5.627 5.627 0 01-3.1-5c0-3.9 3.69-6.776 8.85-6.776a11.265 11.265 0 015.914 1.537c.634-1.5 1.587-3.388 3.175-3.625a2.444 2.444 0 013.135 2.088 1.544 1.544 0 01-1.707 1.891 9.331 9.331 0 00-2.5-.828 2.572 2.572 0 00-1.707.749 6.041 6.041 0 012.858 4.965c0 3.86-4.089 6.343-9.169 6.343a13.241 13.241 0 01-3.889-.551 1.622 1.622 0 00-.318 1.063c0 .828.914 1.379 2.382 1.459 0 0 3.81.038 4.366.078 4.484.316 7.976 2.6 8.175 5.634.357 5.437-5.754 8.116-11.945 7.959-3.375-.079-7.661-1.576-7.859-4.807-.159-2.56 1.508-3.86 4.009-4.254"/><path data-name="Path 9" d="M126.159 25.293c2.461 0 4.049-3.073 4.049-7.879s-1.588-7.879-4.049-7.879-4.047 3.073-4.047 7.879 1.587 7.879 4.047 7.879m-10.318-7.879c0-5.594 4.009-9.179 10.318-9.179 6.271 0 10.28 3.585 10.28 9.179s-4.009 9.179-10.28 9.179c-6.31 0-10.318-3.585-10.318-9.179"/><path data-name="Path 10" d="M148.781 25.293c2.461 0 4.049-3.073 4.049-7.879s-1.588-7.879-4.049-7.879-4.047 3.073-4.047 7.879 1.587 7.879 4.047 7.879m-10.318-7.879c0-5.594 4.009-9.179 10.318-9.179 6.271 0 10.28 3.585 10.28 9.179s-4.009 9.179-10.28 9.179c-6.31 0-10.318-3.585-10.318-9.179"/><path data-name="Path 11" d="M171.285 23.085a4.541 4.541 0 002.142-.472V11.622a4.027 4.027 0 00-3.372-1.813c-2.182 0-3.572 2.6-3.572 6.7 0 4.018 1.864 6.578 4.8 6.578m-10.834-4.412c0-6.382 3.85-10.44 9.883-10.44a5.293 5.293 0 013.094 1.024c-.079-3.9-.516-4.846-2.381-5.752l-.4-.2a1.761 1.761 0 01-.04-.394L178.031 0h1.151v15.994c0 4.885.357 5.91 2.381 6.894l.4.2a1.776 1.776 0 01.04.394l-7.425 2.918h-1.151v-2.684a7.627 7.627 0 01-5.318 2.876c-4.683 0-7.658-3.073-7.658-7.919"/><path data-name="Path 12" d="M0 9.185h5.986V11.9a5.371 5.371 0 012.357-2.3 6.57 6.57 0 013.106-.669c.149 0 .412.037 1.2.075v5.607a5.306 5.306 0 00-2.581-.6 3.946 3.946 0 00-2.731.891 4.988 4.988 0 00-1.347 3.789v7.093H0z"/><path data-name="Path 13" d="M21.248 14.755A3.783 3.783 0 1026.6 20.1a3.655 3.655 0 001.159-2.637 4.021 4.021 0 00-1.159-2.708 3.859 3.859 0 00-5.35 0m10.139 8.838a10.075 10.075 0 01-7.489 2.748 10.068 10.068 0 01-7.445-2.748 8.253 8.253 0 01-2.582-6.127 8.178 8.178 0 012.582-6.09A10.476 10.476 0 0123.9 8.628a10.605 10.605 0 017.482 2.748 8.173 8.173 0 012.582 6.09 8.253 8.253 0 01-2.582 6.127"/><path data-name="Path 14" d="M49.718 20.177a3.742 3.742 0 001.159-2.6 4.062 4.062 0 00-1.159-2.822 3.861 3.861 0 00-5.388.037 4.329 4.329 0 00-1.122 2.674 3.971 3.971 0 001.271 2.822 4.109 4.109 0 002.582 1 3.727 3.727 0 002.657-1.114M43.395 2.633v8.148a6.639 6.639 0 014.976-2.153 8.586 8.586 0 015.91 2.227 9.012 9.012 0 012.732 6.574 9.125 9.125 0 01-2.694 6.61 8.044 8.044 0 01-5.874 2.3 6.151 6.151 0 01-5.051-2.377v1.82h-5.985V2.633z"/></g></g><path data-name="Rectangle 5" fill="#09253c" d="M60.453 9.185h5.986v16.6h-5.986z"/><g data-name="Group 10"><g data-name="Group 9" clip-path="url(#a)" transform="translate(0 .001)"><path data-name="Path 15" d="M70.516 9.185H76.5v2.079a6.329 6.329 0 015.312-2.451 6.793 6.793 0 014.94 1.787c1.422 1.411 1.572 2.822 1.572 4.642v10.543h-5.986v-8.393c0-.965.037-2.414-.749-3.231a2.519 2.519 0 00-1.908-.706 3.291 3.291 0 00-2.208.78 3.8 3.8 0 00-.973 2.637v8.912h-5.984z" fill="#09253c"/></g></g></g></svg>